<?xml version="1.0" standalone="no"?>
<!DOCTYPE svg PUBLIC "-//W3C//DTD SVG 20010904//EN"
 "http://www.w3.org/TR/2001/REC-SVG-20010904/DTD/svg10.dtd">
<svg version="1.0" xmlns="http://www.w3.org/2000/svg"
 width="1280.000000pt" height="1090.000000pt" viewBox="0 0 1280.000000 1090.000000"
 preserveAspectRatio="xMidYMid meet">
<metadata>
Created by potrace 1.15, written by Peter Selinger 2001-2017
</metadata>
<g transform="translate(0.000000,1090.000000) scale(0.100000,-0.100000)"
fill="#000000" stroke="none">
<path d="M5737 10889 c-110 -26 -227 -121 -273 -222 l-29 -62 -3 -1217 -2
-1218 -239 0 c-211 0 -247 -2 -304 -20 -72 -22 -149 -74 -187 -126 -14 -19
-34 -36 -45 -39 -11 -2 -171 -13 -355 -25 -1325 -80 -1764 -111 -1772 -123 -4
-6 -6 -16 -4 -22 2 -5 155 -387 340 -848 186 -462 336 -840 334 -841 -11 -9
-1375 -1091 -1595 -1266 l-271 -217 21 -26 c15 -18 284 -151 852 -421 456
-218 836 -396 843 -396 8 0 47 27 87 60 40 33 76 60 79 60 3 0 6 -543 6 -1208
l0 -1207 843 -402 844 -403 374 25 c206 13 1240 78 2299 145 1059 67 1931 123
1938 125 9 4 12 339 12 1634 l0 1629 63 6 c34 4 206 15 381 26 175 11 320 21
322 23 22 21 -20 97 -364 660 -221 361 -370 613 -365 620 4 7 365 413 803 902
437 490 801 898 809 908 17 22 -1 47 -33 47 -12 0 -200 85 -417 189 -769 368
-1259 601 -1263 601 -2 0 -367 -403 -812 -895 -445 -492 -811 -895 -814 -895
-4 0 -51 113 -107 252 l-100 251 242 332 c133 183 250 352 259 376 10 24 20
83 23 131 6 84 5 90 -26 150 -53 107 -131 175 -237 208 -59 18 -93 20 -305 20
l-239 0 -2 1218 -3 1217 -32 66 c-41 82 -111 150 -201 192 l-67 32 -635 2
c-350 1 -652 -3 -673 -8z"/>
</g>
</svg>
